<svg id="Calque_1" data-name="Calque 1" xmlns="http://www.w3.org/2000/svg" xmlns:xlink="http://www.w3.org/1999/xlink" viewBox="0 0 3167.74 2659.58"><defs><style>.cls-1{fill:none;}.cls-2{clip-path:url(#clip-path);}.cls-3{fill:url(#Dégradé_sans_nom_2);}.cls-4{clip-path:url(#clip-path-2);}.cls-5{fill:url(#Dégradé_sans_nom_3);}.cls-6{clip-path:url(#clip-path-3);}.cls-7{fill:url(#Dégradé_sans_nom_3-2);}.cls-8{clip-path:url(#clip-path-4);}.cls-9{fill:url(#Dégradé_sans_nom_4);}</style><clipPath id="clip-path" transform="translate(621.96 789.79)"><rect class="cls-1" width="1920" height="1080"/></clipPath><linearGradient id="Dégradé_sans_nom_2" x1="585.34" y1="791" x2="587.86" y2="791" gradientTransform="matrix(917.28, -1166.4, -1166.4, -917.28, 386282.87, 1410912.97)" gradientUnits="userSpaceOnUse"><stop offset="0" stop-color="#262d6b"/><stop offset="0.2" stop-color="#262d6b"/><stop offset="0.42" stop-color="#2f3883"/><stop offset="0.66" stop-color="#364097"/><stop offset="0.82" stop-color="#38439e"/><stop offset="1" stop-color="#38439e"/></linearGradient><clipPath id="clip-path-2" transform="translate(621.96 789.79)"><path class="cls-1" d="M1249.19,725.5c-15.79,130.35,410.1,220.88,383.73,352.1-.16.81-.42,1.6-.62,2.4H1920V474.53c-5.45-.08-10.93-.12-16.37-.12-328.58,0-641.45,143.89-654.44,251.09"/></clipPath><linearGradient id="Dégradé_sans_nom_3" x1="585.44" y1="791.12" x2="588" y2="791.12" gradientTransform="matrix(713.44, 713.44, 713.44, -713.44, -980962.13, 147243.08)" gradientUnits="userSpaceOnUse"><stop offset="0" stop-color="#2a3275"/><stop offset="0.49" stop-color="#2a3275"/><stop offset="0.57" stop-color="#2f3883"/><stop offset="0.7" stop-color="#364097"/><stop offset="0.79" stop-color="#38439e"/><stop offset="1" stop-color="#38439e"/></linearGradient><clipPath id="clip-path-3" transform="translate(621.96 789.79)"><path class="cls-1" d="M0,0V630.29C348.18,635.4,684.55,482.47,698.3,369,714.74,233.34,271.39,139.1,298.84,2.5c.17-.85.44-1.66.64-2.5Z"/></clipPath><linearGradient id="Dégradé_sans_nom_3-2" x1="585.5" y1="791.12" x2="588.06" y2="791.12" gradientTransform="matrix(-742.68, -742.68, -742.68, 742.68, 1024371.96, -150588.37)" xlink:href="#Dégradé_sans_nom_3"/><clipPath id="clip-path-4" transform="translate(621.96 789.79)"><path class="cls-1" d="M1364.83,0c-26,87.66-100.31,183.82-189.41,249.68-341.61,252.47-925.72,78.25-978.62,209-37.24,92.09,250.52,182.92,234,325.18C417,903.24,199.45,968.25,5.36,1022.74V1080H887.55C804,919.83,634,735.56,735.75,603.88,824.08,489.53,1027,531.7,1381.07,481.94,1548,458.48,1740.52,415.71,1920,358.87V0Z"/></clipPath><linearGradient id="Dégradé_sans_nom_4" x1="585.2" y1="791" x2="587.72" y2="791" gradientTransform="matrix(-756, -935.28, -935.28, 756, 1184806.53, -48097.21)" gradientUnits="userSpaceOnUse"><stop offset="0" stop-color="#2a3275"/><stop offset="0.44" stop-color="#2a3275"/><stop offset="0.98" stop-color="#37429c"/><stop offset="1" stop-color="#38439e"/></linearGradient></defs><title>font</title><g class="cls-2"><polygon class="cls-3" points="0 1457.09 1355.64 2.62 3163.92 1202.49 1808.28 2656.96 0 1457.09"/></g><g class="cls-4"><polygon class="cls-5" points="2198.66 974.52 2900.84 1566.99 2198.66 2159.45 1496.48 1566.99 2198.66 974.52"/></g><g class="cls-6"><polygon class="cls-7" points="979.33 1726.72 245.43 1107.49 979.33 488.26 1713.23 1107.49 979.33 1726.72"/></g><g class="cls-8"><polygon class="cls-9" points="1383.94 2659.58 1.54 1216.58 1785.34 0 3167.74 1443 1383.94 2659.58"/></g><rect class="cls-1" x="621.96" y="789.79" width="1920" height="1080"/></svg>