<svg id="Calque_1" data-name="Calque 1" xmlns="http://www.w3.org/2000/svg" xmlns:xlink="http://www.w3.org/1999/xlink" viewBox="0 0 2178 2129"><defs><style>.cls-1{fill:none;}.cls-2{clip-path:url(#clip-path);}.cls-3{clip-path:url(#clip-path-2);}.cls-4{fill:url(#Dégradé_sans_nom_5);}.cls-5{opacity:0.8;}.cls-6{clip-path:url(#clip-path-3);}.cls-7{clip-path:url(#clip-path-4);}.cls-8{fill:url(#Dégradé_sans_nom_2);}.cls-9{clip-path:url(#clip-path-5);}.cls-10{fill:#2c3e50;}.cls-11{clip-path:url(#clip-path-6);}.cls-12{opacity:0.69;}.cls-13{clip-path:url(#clip-path-7);}.cls-14{clip-path:url(#clip-path-8);}.cls-15{fill:url(#Dégradé_sans_nom_3);}.cls-16{clip-path:url(#clip-path-9);}.cls-17{clip-path:url(#clip-path-10);}.cls-18{fill:url(#Dégradé_sans_nom_4);}.cls-19{clip-path:url(#clip-path-11);}.cls-20{font-size:153.57px;font-family:Orbitron-Regular, Orbitron;}.cls-20,.cls-24{fill:#00194f;}.cls-21{letter-spacing:0em;}.cls-22{letter-spacing:-0.02em;}.cls-23{letter-spacing:-0.02em;}.cls-25{fill:#fff;}.cls-26{fill:#ed3237;}</style><clipPath id="clip-path"><rect class="cls-1" y="1" width="2178" height="2128"/></clipPath><clipPath id="clip-path-2"><rect class="cls-1" x="-5.01" y="1" width="2183.01" height="2127.24"/></clipPath><linearGradient id="Dégradé_sans_nom_5" x1="-757.62" y1="312.03" x2="-750.22" y2="312.03" gradientTransform="matrix(-480.3, 803.23, -803.23, -480.3, -110756.9, 757123.24)" gradientUnits="userSpaceOnUse"><stop offset="0" stop-color="gray"/><stop offset="0.2" stop-color="gray"/><stop offset="0.22" stop-color="#8e8e8e"/><stop offset="0.27" stop-color="#a9a9a9"/><stop offset="0.33" stop-color="silver"/><stop offset="0.4" stop-color="#d1d1d1"/><stop offset="0.48" stop-color="#ddd"/><stop offset="0.59" stop-color="#e4e4e4"/><stop offset="0.89" stop-color="#e6e6e6"/><stop offset="1" stop-color="#e6e6e6"/></linearGradient><clipPath id="clip-path-3"><rect class="cls-1" x="-5.01" y="-1.87" width="2183.01" height="2132.97"/></clipPath><clipPath id="clip-path-4"><path class="cls-1" d="M1563.6,950c190.23-46.45,409.8-130.82,614.46-243.07V-1.87H1545c-29.62,173.2-114.36,363.05-216,493.11C939.56,989.88,273.57,645.88,213.26,904.08,170.8,1086,498.94,1265.36,480.09,1546.28,464.28,1782,216.26,1910.38-5,2018V2131.1H1000.83c-95.24-316.32-289-680.24-173.07-940.32C928.44,965,1159.87,1048.23,1563.54,950"/></clipPath><linearGradient id="Dégradé_sans_nom_2" x1="-755.33" y1="314.3" x2="-749.63" y2="314.3" gradientTransform="matrix(966.14, 338.75, -338.75, 966.14, 834882.92, -47570.86)" gradientUnits="userSpaceOnUse"><stop offset="0" stop-color="#e6e6e6"/><stop offset="0.36" stop-color="#e6e6e6"/><stop offset="0.43" stop-color="#e3e3e3"/><stop offset="0.48" stop-color="#dadada"/><stop offset="0.52" stop-color="#cacaca"/><stop offset="0.57" stop-color="#b3b3b3"/><stop offset="0.61" stop-color="#969696"/><stop offset="0.63" stop-color="gray"/><stop offset="1" stop-color="gray"/></linearGradient><clipPath id="clip-path-5"><rect class="cls-1" x="-41.72" y="234.26" width="724.2" height="193.69"/></clipPath><clipPath id="clip-path-6"><rect class="cls-1" x="-235.94" y="1592.78" width="2153.92" height="423.48"/></clipPath><clipPath id="clip-path-7"><rect class="cls-1" x="1090.64" y="1153.4" width="1087.36" height="975.58"/></clipPath><clipPath id="clip-path-8"><path class="cls-1" d="M1091.33,1557.91c-25.58,210.08,664.33,355.83,621.6,567.23-.24,1.32-.66,2.58-1,3.86h466V1153.57c-541.81-7.9-1065.21,228.86-1086.67,404.3"/></clipPath><linearGradient id="Dégradé_sans_nom_3" x1="-764.05" y1="314.6" x2="-756.27" y2="314.6" gradientTransform="matrix(-412.54, -364.2, 364.2, -412.54, -426000.09, -144938.55)" gradientUnits="userSpaceOnUse"><stop offset="0" stop-color="gray"/><stop offset="0.2" stop-color="gray"/><stop offset="0.32" stop-color="#898989"/><stop offset="0.51" stop-color="#a3a3a3"/><stop offset="0.76" stop-color="#ccc"/><stop offset="0.9" stop-color="#e6e6e6"/><stop offset="1" stop-color="#e6e6e6"/></linearGradient><clipPath id="clip-path-9"><rect class="cls-1" y="1" width="1233.57" height="1038.51"/></clipPath><clipPath id="clip-path-10"><path class="cls-1" d="M-.08,665.84v373.62c450.59-364.24,1182.48-186.14,1231.43-403,36.79-163.92-377.47-282-377.47-529.71,0-37.3,9.44-72.41,26.4-105.71H378.5C468.91,160.75,529,318.73,459.39,458.29S237.57,624.13-.08,665.84"/></clipPath><linearGradient id="Dégradé_sans_nom_4" x1="-759.16" y1="311.14" x2="-753.21" y2="311.14" gradientTransform="translate(-110541.02 314808.93) rotate(131.86) scale(407.95)" gradientUnits="userSpaceOnUse"><stop offset="0" stop-color="gray"/><stop offset="0.2" stop-color="gray"/><stop offset="0.89" stop-color="#bdccd4"/><stop offset="1" stop-color="#bdccd4"/></linearGradient><clipPath id="clip-path-11"><rect class="cls-1" x="-31.39" y="454.93" width="2257.24" height="263.21"/></clipPath></defs><title>loginFont</title><g class="cls-2"><g class="cls-3"><polygon class="cls-4" points="3267.09 561.28 1603.03 2955.49 -1094.11 1567.95 569.98 -826.27 3267.09 561.28"/></g><g class="cls-5"><g class="cls-6"><g class="cls-7"><polygon class="cls-8" points="233.98 -888.37 2690.07 231.66 1939 3017.61 -517.08 1897.58 233.98 -888.37"/></g></g></g><g class="cls-5"><g class="cls-9"><path class="cls-10" d="M-41.72,374.46c80.8,30.23,161.79,53.61,249.28,53.61,57.8,0,118.43-10.19,183.71-35.18,68-25.93,116.22-55.5,172.14-89.73,34.76-21.28,72.49-44.29,119.07-68.84h-17.3c-40.69,21.94-74.5,42.62-105.87,61.85-55.58,34-103.59,63.4-170.84,89.11C225,447.7,95.43,417.68-41.26,365.94c-.22,2.79-.32,5.61-.4,8.46"/></g></g><g class="cls-5"><g class="cls-11"><path class="cls-10" d="M1918,1801.29c-41.4-28.55-81.51-54.06-134.09-78-193.65-88.22-345.5-37.11-521.39,22-146.23,49.13-311.95,104.85-522.33,75.3-165.46-23.22-259.76-88.33-335.65-140.66C340.75,1635.75,290.34,1601,219,1601h-.22c-222.59.17-297.83,140.68-370.63,276.64-25.61,47.67-51.61,96.12-84.09,138.64v-12.89c28.64-39.36,52.6-84,77.09-129.73,73.92-138,150.33-280.68,377.63-280.9h.2c73.76,0,127.67,37.11,190,80.41,75.13,51.85,168.62,116.39,332.25,139.34,208.53,29.28,366.24-23.73,518.77-75,170-57.11,330.66-111.09,527-21.59,51.31,23.38,90.62,48.19,130.89,75.67Z"/></g></g><rect class="cls-1" x="-5.01" y="1" width="2061.95" height="2130.1"/><g class="cls-12"><g class="cls-13"><g class="cls-14"><polygon class="cls-15" points="1690.84 2578.3 466.62 1698.3 1552.91 696.31 2777.14 1576.39 1690.84 2578.3"/></g></g></g><g class="cls-16"><g class="cls-17"><polygon class="cls-18" points="-507.29 577.01 564.68 -640.29 1775.38 463.41 703.4 1680.74 -507.29 577.01"/></g></g><rect class="cls-1" x="-172.49" y="-61.87" width="3483.41" height="2377.87"/><g class="cls-5"><g class="cls-19"><path class="cls-10" d="M-31.39,494.62C-3.75,596.38,38.46,679.34,135.32,707.06c79.47,22.84,139.62-14.44,215.78-61.57,81.11-50.19,182-112.66,345.47-124.62,219.95-16.08,381.61,46.7,537.92,107.44C1408.79,696,1573.41,760,1784.4,683c71.24-26,121.76-55.5,180.38-89.73,59.42-34.7,126.86-74,230.19-117.15,10.19-4.25,20.52-8.25,30.81-12.37v-8.93c-11.39,4.49-22.79,8.93-34.11,13.69-103.94,43.3-171.58,82.82-231.22,117.67-58.26,34-108.58,63.38-179,89.05-208,75.9-363.68,15.4-543.9-54.64-149.84-58.22-319.73-124.22-541.67-108-165.46,12.21-267.35,75.26-349.22,126-74.39,46-133.1,82.47-208.92,60.7C35.1,669.82-4.41,574.19-31.39,460.62Z"/></g></g></g><text class="cls-20" transform="translate(936.64 1227.18) scale(1.08 1)">P<tspan class="cls-21" x="121.47" y="0">r</tspan><tspan x="199.33" y="0">o</tspan><tspan class="cls-22" x="305.59" y="0">je</tspan><tspan class="cls-23" x="442.72" y="0">c</tspan><tspan x="545.77" y="0">ts</tspan></text><path class="cls-24" d="M784,1206.1a26.6,26.6,0,0,1-8.32,6.65s.19,4.85.58,14.55c-3.86,1.42-8.74,3.23-14.36,5.34-9.81,3.69-18.16,6.9-24.48,9.37-6.7,2.61-16.64,6.49-29.66,11.82-20.56,8.41-35.74,15.09-41.31,17.55-3.2,1.41-5.85,2.6-7.64,3.41-1.6.77-3,1.52-5.37,2.52,0,0-2.29,1-4.24,1.71-6.27,2.3-16-.1-16-.1C578,1257.27,523,1235,467.83,1213.25c-6.88-2.71-8.75-6.44-8.66-12.93.35-24.16-.11-48.34.31-72.5.12-6.72-2.3-10-9-12.61-24.77-9.66-49.26-19.93-75.77-30.77,17.25-7.16,32.76-13.64,48.32-20q103.88-42.68,207.85-85.13c4-1.64,10-2.34,13.84-.82q125.7,49.77,251.08,100.25a15.4,15.4,0,0,1,2.66,1.73c-.14.8-.12,1.9-.37,2-3.8.84-6.5,3.3-11.66,6.25a16.43,16.43,0,0,0-5.92,5.07,11.15,11.15,0,0,0-.93,1.81c-.83,1.88-1.46,4.15-1.77,10,0,.88-.1,2.18-.14,4.47-.11,7.47-.15,11.23.76,13.06s2.41,3.74,5.23,6.72a25.49,25.49,0,0,0,2.8,2.74c3.5,3.08,4.43,9.58,2.73,14.66a16.51,16.51,0,0,1-4,6.33,17.9,17.9,0,0,1-3.48,2.66,17.55,17.55,0,0,1-2.57,1.23,17,17,0,0,1-1.82.6c-1.28.4,3.83,21.48,24.81,92.32H843.37q12.43-46,24.86-92.07c-.79-.2-10.21-2.86-12.94-11a15.68,15.68,0,0,1,2-13.8,33.24,33.24,0,0,1,4-4c6-5.56,7.13-5.12,8.71-7.43,1.36-2,.72-2.63,1.07-14,.21-6.84.55-9-1.15-10.25-2-1.47-5.3-.9-7.9.15-3.65,1.48-35.6,14.82-40.71,17.21-3.87,1.82-1.82,4.13-4.13,8.69,0,0-11.88,16.45-44.75,34.81l-10.06,5.6h.14a40.85,40.85,0,0,1,15.37,2.66,37.09,37.09,0,0,1,8.44,4.72,18,18,0,0,1,1.74,1.45l.79.76c1.16,1.11,2.23,2.05,2.23,2.05l-2.23-2.05-2.4.93c-47.88,18.65-124.36,50.38-136,56.11a18.49,18.49,0,0,1-2.59,1,23.41,23.41,0,0,1-14.83-.72c-46.38-18.2-92.56-36.85-138.81-55.35-4.14-1.66-8.33-3.22-14.18-5.48,0,8.21-.64,14.95.3,21.49.4,2.7,3.69,6.09,6.57,7.26q73.95,30,148.28,59.28c4.13,1.61,10.57.69,15-1.09,54.3-21.92,114.53-47.69,127.83-53.14a49.31,49.31,0,0,0,5.88-2.38c1.92-1,2.81-1.6,3.14-1.34.6.48-1.29,3.53-3,5.64M794.85,1126c-5.21,2.1-9.76,3.88-14.27,5.76-44.16,18.38-88.19,37-132.62,54.85-5.84,2.34-14.54,2.5-20.41.28-30.23-11.43-60-24-89.87-36.11l-55.94-22.66c-4.35,18.51-3.66,20.05,12.86,26.68,45.84,18.37,91.63,36.86,137.71,54.71a27.49,27.49,0,0,0,18,0c42.73-17,85.14-34.62,127.64-52,19.69-8.08,19.7-8.07,18.12-28.15a19,19,0,0,0-1.22-3.32"/><path class="cls-25" d="M819.54,1116.79a106.66,106.66,0,0,0-.25,11.12c.5,17.88,7,23.08,4.58,35.7,0,0,0,.14-2.92,12.28a83.27,83.27,0,0,0-32.06-11.9c-48.22-6.87-105.38,31-109.9,34-3.48,2.32-14.77,6-28.69,11.48a27.46,27.46,0,0,1-18,0c-46.08-17.86-91.87-36.34-137.71-54.72-16.52-6.62-17.21-8.16-12.86-26.67,18.77,7.6,37.36,15.12,55.94,22.66,29.9,12.14,59.64,24.68,89.87,36.11,5.87,2.22,14.57,2.06,20.41-.28,45.25-18.16,69.06-27.49,132.62-54.86,7.95-3.42,21.45-9,39-14.94"/><path class="cls-24" d="M755.73,1187q3.33-11.36,6.67-22.7c17.05-.59,32.21,10,36.07,25,4,15.68-5.39,32.19-22.18,38.09q-4-9-7.94-18.06c5.83-3.32,8.44-9.63,6.61-14.83-2.27-6.46-11-10.44-19.23-7.45"/><path class="cls-24" d="M832.75,1110.09s-11.39,3.22-10,14l.29,71.5s.83,9-7,12.2l-13.32,5.33-1.13-90.52Z"/><path class="cls-26" d="M868.23,1158.29c-1.33-.41-10.25-3.3-12.94-11a15.71,15.71,0,0,1-.25-8.68,21.36,21.36,0,0,1,7.77-12.29c3.19-2.41,4.46-1.84,6.1-4.1,1.45-2,1.66-4.39,2.08-9.21,0-.32.07-2.43.14-6.66.08-4,.08-5.28-.83-6.65-1.23-1.86-2.73-1.77-2.82-2.72-.35-3.18,16.13-7.7,16.54-6.8.09.19-.67.46-1.69,1.4-2,1.86-2.7,4.17-3.42,8.38-.85,4.87-1.27,7.31-1.25,10.11,0,6,.06,12.43,4.3,17.79,2.94,3.7,5.13,3.35,6.94,7.16a15.39,15.39,0,0,1,.83,10.06,17.18,17.18,0,0,1-12.42,13s1.62,6,1.62,6.07c.86,3.18,22.33,83.06,23.2,86.25H843.37Z"/><path class="cls-24" d="M675.59,1173.76l-18.66-16c-15.43,7.35-22.38,24.25-16.34,38.74,5.7,13.74,21.68,22,37.83,19.23q.27-8.84.57-17.68c-7.22.9-13.79-3.1-15.47-8.57a11.26,11.26,0,0,1,2.09-10,15,15,0,0,1,10-5.69"/><path class="cls-25" d="M665.61,1179.45s-5.66,6.9,0,13.75c0,0,6.84,7.46,15.26,4l80.11-33s9.27-4.9,6.61-14.83a13.9,13.9,0,0,0-10.05-8.08Z"/><path class="cls-25" d="M480.08,1170.38c19,7.91,34.77,14.29,46.11,18.81,16.11,6.42,30.82,12.14,60.24,23.57,19.45,7.56,18.63,7.18,19.29,7.48,0,0,17.3,7.76,30.21,11.66a19.18,19.18,0,0,0,4.49.83,23.07,23.07,0,0,0,10.07-1.84c.45-.22,1-.47,2.64-1.26l3.51-1.62c27-12.2,104.26-43,104.26-43l0,0c-3.36-1.08,7.13,1.76,9.77,4a12.62,12.62,0,0,1,3.85,5.92c.28.88,1.39,4.17.16,7.31s-4.09,5.3-8.12,7q-50.57,21.11-101.09,42.25c-.29.12-1.65.73-3.53,1.52-7,2.95-13.7,5.27-15.87,5.88-6.8,1.92-13.53-.57-25.44-5.34-18.06-7.24-26.91-11.21-32.11-13.33-29.93-12.18-60.11-23.87-90.13-35.89-4.67-1.87-12.77-3.88-17.25-10.71-5.21-8-2.93-17.7-1.1-23.12"/></svg>